<?xml version="1.0" encoding="UTF-8" standalone="no"?>
<!-- Created with Inkscape (http://www.inkscape.org/) -->

<svg
   xmlns:dc="http://purl.org/dc/elements/1.1/"
   xmlns:cc="http://creativecommons.org/ns#"
   xmlns:rdf="http://www.w3.org/1999/02/22-rdf-syntax-ns#"
   xmlns:svg="http://www.w3.org/2000/svg"
   xmlns="http://www.w3.org/2000/svg"
   xmlns:sodipodi="http://sodipodi.sourceforge.net/DTD/sodipodi-0.dtd"
   xmlns:inkscape="http://www.inkscape.org/namespaces/inkscape"
   width="31"
   height="16"
   viewBox="0 0 31 16"
   id="svg2"
   version="1.1"
   inkscape:version="0.91 r13725"
   inkscape:export-filename="/home/herman/Pictures/eqdb.png"
   inkscape:export-xdpi="2362.5"
   inkscape:export-ydpi="2362.5"
   sodipodi:docname="eqdb-logo.svg">
  <defs
     id="defs4" />
  <sodipodi:namedview
     id="base"
     pagecolor="#ffffff"
     bordercolor="#666666"
     borderopacity="1.0"
     inkscape:pageopacity="0.0"
     inkscape:pageshadow="2"
     inkscape:zoom="22.627417"
     inkscape:cx="4.9076081"
     inkscape:cy="5.1492199"
     inkscape:document-units="px"
     inkscape:current-layer="g4883"
     showgrid="true"
     units="px"
     inkscape:snap-bbox="true"
     inkscape:object-nodes="true"
     inkscape:snap-bbox-midpoints="true"
     inkscape:window-width="1920"
     inkscape:window-height="1016"
     inkscape:window-x="0"
     inkscape:window-y="27"
     inkscape:window-maximized="1"
     showguides="true">
    <inkscape:grid
       type="xygrid"
       id="grid3336" />
  </sodipodi:namedview>
  <metadata
     id="metadata7">
    <rdf:RDF>
      <cc:Work
         rdf:about="">
        <dc:format>image/svg+xml</dc:format>
        <dc:type
           rdf:resource="http://purl.org/dc/dcmitype/StillImage" />
        <dc:title />
      </cc:Work>
    </rdf:RDF>
  </metadata>
  <g
     inkscape:label="Layer 1"
     inkscape:groupmode="layer"
     id="layer1"
     transform="translate(0,-1036.3622)">
    <path
       style="fill:#000000;fill-opacity:1;fill-rule:evenodd;stroke:none;stroke-width:1px;stroke-linecap:butt;stroke-linejoin:miter;stroke-opacity:1"
       d="m 2,1038.3622 0,9 6,0 0,-2 -1,0 0,1 -4,0 0,-3 2,0 0,-1 -2,0 0,-3 4,0 0,1 1,0 0,-2 z"
       id="path3338"
       inkscape:connector-curvature="0"
       sodipodi:nodetypes="ccccccccccccccccc" />
    <path
       style="fill:#000000;fill-opacity:1;fill-rule:evenodd;stroke:none;stroke-width:1px;stroke-linecap:butt;stroke-linejoin:miter;stroke-opacity:1"
       d="m 16,1038.3622 0,1 1,0 0,7 -1,0 0,1 2,0 1,0 c 2.479396,0 4,-2.0206 4,-4.5 0,-2.4794 -1.520604,-4.5 -4,-4.5 l -1,0 z m 2,1 1,0 c 1.938956,0 3,1.5611 3,3.5 0,1.939 -1.061044,3.5 -3,3.5 l -1,0 z"
       id="path4181"
       inkscape:connector-curvature="0"
       sodipodi:nodetypes="cccccccssscccssscc" />
    <path
       style="fill:#000000;fill-opacity:1;fill-rule:evenodd;stroke:none;stroke-width:1px;stroke-linecap:butt;stroke-linejoin:miter;stroke-opacity:1"
       d="m 24,1038.3622 0,1 0,0 0,7 0,0 0,1 2.5,0 c 1.37479,0 2.5,-1.1252 2.5,-2.5 0,-0.8192 -0.405795,-1.5433 -1.019531,-2 0.61417,-0.4567 1.019531,-1.1805 1.019531,-2 0,-1.3748 -1.12521,-2.5 -2.5,-2.5 z m 1,1 1.5,0 c 0.834349,0 1.5,0.6657 1.5,1.5 0,0.8344 -0.665651,1.5 -1.5,1.5 l -1.5,0 z m 0,4 1.5,0 c 0.834349,0 1.5,0.6657 1.5,1.5 0,0.8344 -0.665651,1.5 -1.5,1.5 l -1.5,0 z"
       id="path4189"
       inkscape:connector-curvature="0"
       sodipodi:nodetypes="ccccccsscssccssscccssscc" />
    <g
       id="g4883">
      <path
         style="color:#000000;font-style:normal;font-variant:normal;font-weight:normal;font-stretch:normal;font-size:medium;line-height:normal;font-family:sans-serif;text-indent:0;text-align:start;text-decoration:none;text-decoration-line:none;text-decoration-style:solid;text-decoration-color:#000000;letter-spacing:normal;word-spacing:normal;text-transform:none;direction:ltr;block-progression:tb;writing-mode:lr-tb;baseline-shift:baseline;text-anchor:start;white-space:normal;clip-rule:nonzero;display:inline;overflow:visible;visibility:visible;opacity:1;isolation:auto;mix-blend-mode:normal;color-interpolation:sRGB;color-interpolation-filters:linearRGB;solid-color:#000000;solid-opacity:1;fill:#000000;fill-opacity:1;fill-rule:nonzero;stroke:none;stroke-width:1;stroke-linecap:butt;stroke-linejoin:miter;stroke-miterlimit:4;stroke-dasharray:none;stroke-dashoffset:0;stroke-opacity:1;color-rendering:auto;image-rendering:auto;shape-rendering:auto;text-rendering:auto;enable-background:accumulate"
         d="m 11,1040.3614 c -1.65093,0 -3,1.3491 -3,3 0,1.651 1.34907,3 3,3 1.65093,0 3,-1.349 3,-3 0,-1.6509 -1.34907,-3 -3,-3 z m 0,1 c 1.110494,0 2,0.8895 2,2 0,1.1105 -0.889506,2 -2,2 -1.110494,0 -2,-0.8895 -2,-2 0,-1.1105 0.889506,-2 2,-2 z"
         id="path4148"
         inkscape:connector-curvature="0" />
      <path
         sodipodi:nodetypes="ccc"
         style="fill:none;fill-rule:evenodd;stroke:#000000;stroke-width:1px;stroke-linecap:butt;stroke-linejoin:miter;stroke-opacity:1"
         d="m 13.5,1040.3622 0,10.4999 3.5,-1.5"
         id="path4150-3"
         inkscape:connector-curvature="0" />
    </g>
  </g>
</svg>
